<!-- myLogo.svg -->
<svg xmlns="http://www.w3.org/2000/svg" xmlns:xlink="http://www.w3.org/1999/xlink" viewBox="0 0 280 280" width="280" height="280" preserveAspectRatio="xMidYMid slice" style="width: 100%; height: 100%; transform: translate3d(0px, 0px, 0px); content-visibility: visible;"><defs><clipPath id="__lottie_element_1058"><rect width="280" height="280" x="0" y="0"></rect></clipPath><symbol id="__lottie_element_1059"><g><g transform="matrix(0.7773535251617432,0,0,0.7773535251617432,46.71757507324219,46.71757507324219)" opacity="1" style="display: block;"><g opacity="1" transform="matrix(1,0,0,1,120,120)"><path fill="rgb(255,255,255)" fill-opacity="1" d=" M40,0 C40,22.090999603271484 22.090999603271484,40 0,40 C-22.090999603271484,40 -40,22.090999603271484 -40,0 C-40,-22.090999603271484 -22.090999603271484,-40 0,-40 C22.090999603271484,-40 40,-22.090999603271484 40,0z"></path></g></g></g></symbol><linearGradient id="__lottie_element_1065" spreadMethod="pad" gradientUnits="userSpaceOnUse" x1="-119" y1="0" x2="119.5" y2="0"><stop offset="0%" stop-color="rgb(0,0,210)"></stop><stop offset="50%" stop-color="rgb(0,0,233)"></stop><stop offset="100%" stop-color="rgb(0,0,255)"></stop></linearGradient><filter id="__lottie_element_1066" filterUnits="objectBoundingBox" x="0%" y="0%" width="100%" height="100%"><feComponentTransfer in="SourceGraphic"><feFuncA type="table" tableValues="1.0 0.0"></feFuncA></feComponentTransfer></filter><mask id="__lottie_element_1059_2" mask-type="alpha"><g filter="url(#__lottie_element_1066)"><rect width="280" height="280" x="0" y="0" fill="#ffffff" opacity="0"></rect><use xlink:href="#__lottie_element_1059"></use></g></mask></defs><g clip-path="url(#__lottie_element_1058)"><g mask="url(#__lottie_element_1059_2)" style="display: block;"><g transform="matrix(1.0625309944152832,0,0,1.0625309944152832,12.49627685546875,12.49627685546875)" opacity="1"><g opacity="1" transform="matrix(1,0,0,1,120,120)"><path fill="url(#__lottie_element_1065)" fill-opacity="1" d=" M0,-120 C-66.2750015258789,-120 -120,-66.27400207519531 -120,0 C-120,66.2750015258789 -66.2750015258789,120 0,120 C66.27400207519531,120 120,66.2750015258789 120,0 C120,-66.27400207519531 66.27400207519531,-120 0,-120z"></path></g></g></g></g></svg>